<?xml version="1.0" encoding="UTF-8" standalone="no"?>
<!-- Created with Inkscape (http://www.inkscape.org/) -->

<svg
   width="1353.1971"
   height="263.69293"
   viewBox="0 0 358.0334 69.768755"
   version="1.1"
   id="svg1"
   xml:space="preserve"
   sodipodi:docname="logo - copia (2).svg"
   inkscape:version="1.3 (0e150ed6c4, 2023-07-21)"
   xmlns:inkscape="http://www.inkscape.org/namespaces/inkscape"
   xmlns:sodipodi="http://sodipodi.sourceforge.net/DTD/sodipodi-0.dtd"
   xmlns="http://www.w3.org/2000/svg"
   xmlns:svg="http://www.w3.org/2000/svg"><sodipodi:namedview
     id="namedview1"
     pagecolor="#ffffff"
     bordercolor="#000000"
     borderopacity="0.25"
     inkscape:showpageshadow="2"
     inkscape:pageopacity="0.0"
     inkscape:pagecheckerboard="0"
     inkscape:deskcolor="#d1d1d1"
     inkscape:document-units="mm"
     showgrid="true"
     showguides="true"
     inkscape:zoom="1.2351245"
     inkscape:cx="467.15937"
     inkscape:cy="390.64887"
     inkscape:window-width="1366"
     inkscape:window-height="697"
     inkscape:window-x="-8"
     inkscape:window-y="-8"
     inkscape:window-maximized="1"
     inkscape:current-layer="layer1"
     inkscape:export-bgcolor="#ffffff00" /><defs
     id="defs1"><inkscape:path-effect
       effect="fillet_chamfer"
       id="path-effect91"
       is_visible="true"
       lpeversion="1"
       nodesatellites_param="F,0,0,1,0,0,0,1 @ F,0,0,1,0,0,0,1 @ F,0,0,1,0,0,0,1 @ F,0,0,1,0,0,0,1"
       radius="0"
       unit="px"
       method="auto"
       mode="F"
       chamfer_steps="1"
       flexible="false"
       use_knot_distance="true"
       apply_no_radius="true"
       apply_with_radius="true"
       only_selected="false"
       hide_knots="false" /><inkscape:path-effect
       effect="fillet_chamfer"
       id="path-effect84"
       is_visible="true"
       lpeversion="1"
       nodesatellites_param="F,0,0,1,0,0,0,1 @ F,0,0,1,0,0,0,1 @ F,0,0,1,0,0,0,1 @ F,0,0,1,0,0,0,1"
       radius="0"
       unit="px"
       method="auto"
       mode="F"
       chamfer_steps="1"
       flexible="false"
       use_knot_distance="true"
       apply_no_radius="true"
       apply_with_radius="true"
       only_selected="false"
       hide_knots="false" /><inkscape:path-effect
       effect="fillet_chamfer"
       id="path-effect77"
       is_visible="true"
       lpeversion="1"
       nodesatellites_param="F,0,0,1,0,0,0,1 @ F,0,0,1,0,0,0,1 @ F,0,0,1,0,0,0,1 @ F,0,0,1,0,0,0,1"
       radius="0"
       unit="px"
       method="auto"
       mode="F"
       chamfer_steps="1"
       flexible="false"
       use_knot_distance="true"
       apply_no_radius="true"
       apply_with_radius="true"
       only_selected="false"
       hide_knots="false" /><inkscape:path-effect
       effect="fillet_chamfer"
       id="path-effect55"
       is_visible="true"
       lpeversion="1"
       nodesatellites_param="F,0,0,1,0,0,0,1 @ F,0,0,1,0,0,0,1 @ F,0,0,1,0,0,0,1 @ F,0,0,1,0,0,0,1"
       radius="0"
       unit="px"
       method="auto"
       mode="F"
       chamfer_steps="1"
       flexible="false"
       use_knot_distance="true"
       apply_no_radius="true"
       apply_with_radius="true"
       only_selected="false"
       hide_knots="false" /><inkscape:path-effect
       effect="fillet_chamfer"
       id="path-effect67"
       is_visible="true"
       lpeversion="1"
       nodesatellites_param="F,0,0,1,0,0,0,1 @ F,0,0,1,0,0,0,1 @ F,0,0,1,0,0,0,1 @ F,0,0,1,0,0,0,1"
       radius="0"
       unit="px"
       method="auto"
       mode="F"
       chamfer_steps="1"
       flexible="false"
       use_knot_distance="true"
       apply_no_radius="true"
       apply_with_radius="true"
       only_selected="false"
       hide_knots="false" /><inkscape:path-effect
       effect="fillet_chamfer"
       id="path-effect59"
       is_visible="true"
       lpeversion="1"
       nodesatellites_param="F,0,0,1,0,0,0,1 @ F,0,0,1,0,0,0,1 @ F,0,0,1,0,0,0,1 @ F,0,0,1,0,0,0,1"
       radius="0"
       unit="px"
       method="auto"
       mode="F"
       chamfer_steps="1"
       flexible="false"
       use_knot_distance="true"
       apply_no_radius="true"
       apply_with_radius="true"
       only_selected="false"
       hide_knots="false" /><inkscape:path-effect
       effect="fillet_chamfer"
       id="path-effect51"
       is_visible="true"
       lpeversion="1"
       nodesatellites_param="F,0,0,1,0,0,0,1 @ F,0,0,1,0,0,0,1 @ F,0,0,1,0,0,0,1 @ F,0,0,1,0,0,0,1"
       radius="0"
       unit="px"
       method="auto"
       mode="F"
       chamfer_steps="1"
       flexible="false"
       use_knot_distance="true"
       apply_no_radius="true"
       apply_with_radius="true"
       only_selected="false"
       hide_knots="false" /><inkscape:path-effect
       effect="fillet_chamfer"
       id="path-effect23"
       is_visible="true"
       lpeversion="1"
       nodesatellites_param="F,0,0,1,0,0,0,1 @ F,0,0,1,0,0,0,1 @ F,0,0,1,0,0,0,1 @ F,0,0,1,0,0,0,1"
       radius="0"
       unit="px"
       method="auto"
       mode="F"
       chamfer_steps="1"
       flexible="false"
       use_knot_distance="true"
       apply_no_radius="true"
       apply_with_radius="true"
       only_selected="false"
       hide_knots="false" /></defs><g
     inkscape:label="Capa 1"
     inkscape:groupmode="layer"
     id="layer1"
     transform="translate(-19.42079,-163.55312)"><g
       id="g1"
       transform="matrix(1.879762,0,0,1.879762,-196.43196,-180.60209)"><text
         xml:space="preserve"
         style="font-style:normal;font-variant:normal;font-weight:normal;font-stretch:normal;font-size:25.0983px;font-family:'Zalando Sans Expanded';-inkscape-font-specification:'Zalando Sans Expanded, ';fill:#000000;stroke-width:0.739257"
         x="163.29051"
         y="210.42677"
         id="text69"
         inkscape:export-filename="text69.png"
         inkscape:export-xdpi="96"
         inkscape:export-ydpi="96"><tspan
           sodipodi:role="line"
           style="font-style:normal;font-variant:normal;font-weight:500;font-stretch:expanded;font-size:25.0983px;font-family:'Zalando Sans Expanded';-inkscape-font-specification:'Zalando Sans Expanded,  Medium Expanded';stroke-width:0.739257"
           x="163.29051"
           y="210.42677"
           id="tspan69">Enersolux</tspan></text><g
         id="g92"
         transform="translate(29.32405,98.026111)"><path
           id="path2"
           style="stroke-width:0.0258259"
           d="m 101.9607,85.058374 c -0.29377,0 -0.54526,0.211741 -0.59479,0.501778 l -0.46147,2.669605 c -0.16071,0.928217 -0.77722,1.696912 -1.651067,2.058272 l -0.03256,0.01344 c -0.872633,0.362571 -1.852747,0.255324 -2.622579,-0.287321 l -2.215885,-1.563212 c -0.239294,-0.169182 -0.566711,-0.141246 -0.77463,0.06666 l -4.634859,4.63641 c -0.20913,0.20671 -0.236967,0.534125 -0.0677,0.77463 l 1.562695,2.214335 c 0.542645,0.769933 0.650069,1.751318 0.286287,2.625163 l -0.01344,0.03359 c -0.360152,0.871415 -1.128505,1.487946 -2.056722,1.647446 l -2.671155,0.46198 c -0.290037,0.0507 -0.501778,0.30216 -0.501778,0.59583 v 6.55412 h 6.714318 v -4.32325 c 0,-0.0969 0.03477,-0.18691 0.09353,-0.25683 0.05883,-0.0699 0.141533,-0.11972 0.237195,-0.13642 l 1.762166,-0.30489 c 0.382688,-0.0658 0.724192,-0.24921 0.984436,-0.5178 0.104123,-0.1075 0.195202,-0.22854 0.270784,-0.36122 0.03779,-0.0663 0.07159,-0.13537 0.101286,-0.20722 l 0.0088,-0.0222 c 0.03,-0.0721 0.05511,-0.14524 0.07545,-0.21911 0.07832,-0.28455 0.08352,-0.57918 0.0217,-0.86093 -0.0024,-0.0109 -0.0031,-0.0222 -0.0057,-0.0331 -0.03476,-0.14564 -0.08783,-0.28743 -0.159164,-0.4222 v -5.2e-4 c -0.03572,-0.0675 -0.07618,-0.13288 -0.120923,-0.19637 L 94.46398,98.738669 c -0.111656,-0.15865 -0.09299,-0.374724 0.04496,-0.51108 l 3.057178,-3.058211 c 0.06858,-0.06858 0.156636,-0.10745 0.24753,-0.115239 0.09089,-0.0078 0.184624,0.01552 0.26355,0.07131 l 1.461409,1.030945 c 0.06348,0.04474 0.128964,0.08519 0.196371,0.120922 h 5.16e-4 c 0.134688,0.07134 0.276226,0.124864 0.421676,0.159681 h 5.2e-4 c 0.21826,0.05218 0.44512,0.06256 0.66921,0.03049 0.14951,-0.0214 0.29792,-0.06165 0.44183,-0.12144 l 0.0217,-0.0088 c 0.43233,-0.178779 0.76894,-0.508684 0.95498,-0.920874 0.062,-0.137367 0.10734,-0.284107 0.13384,-0.437183 l 0.30437,-1.761132 c 0.0327,-0.191324 0.19896,-0.330729 0.39275,-0.330729 h 4.32428 c 0.0485,0 0.0952,0.0087 0.13849,0.0248 0.0433,0.01611 0.0829,0.0398 0.11782,0.06925 0.0698,0.0589 0.11968,0.141534 0.13643,0.237194 l 0.30386,1.760616 c 0.0265,0.153092 0.0718,0.299814 0.13384,0.437183 0.031,0.06868 0.0663,0.134649 0.10542,0.198438 0.0782,0.127731 0.17195,0.245069 0.27957,0.349332 0.10751,0.104158 0.22854,0.195186 0.36122,0.270785 0.0663,0.0378 0.13537,0.07159 0.20722,0.101286 l 0.0233,0.0098 c 0.072,0.0299 0.14531,0.05468 0.21911,0.07493 0.0738,0.02026 0.14793,0.03581 0.22273,0.04651 0.0748,0.0107 0.15032,0.01685 0.22531,0.01809 0.0748,0.0012 0.14961,-0.0022 0.22376,-0.01034 0.1485,-0.01626 0.29524,-0.05124 0.43615,-0.104386 0.0705,-0.02662 0.13986,-0.05781 0.20722,-0.09354 0.0674,-0.03573 0.13299,-0.07618 0.19637,-0.120922 l 1.46089,-1.029912 c 0.0789,-0.0558 0.17265,-0.07949 0.26355,-0.07183 0.0909,0.0077 0.17898,0.04666 0.24753,0.115239 l 3.0577,3.057694 c 0.0689,0.06845 0.10778,0.156764 0.11575,0.24753 v 5.17e-4 c 0.008,0.09076 -0.0156,0.184375 -0.0713,0.26355 l -1.03095,1.460897 c -0.12371,0.17552 -0.21048,0.36835 -0.26458,0.56844 -0.0437,0.16174 -0.0669,0.328 -0.0641,0.49557 0.002,0.14993 0.0236,0.30036 0.0641,0.44804 0.0203,0.0738 0.0456,0.14705 0.0755,0.21911 l 0.01,0.0238 c 0.0594,0.1435 0.13582,0.2764 0.22635,0.39687 0.0453,0.0602 0.0942,0.11736 0.14624,0.17105 0.15624,0.16109 0.34174,0.29167 0.54777,0.38447 0.13736,0.0619 0.28359,0.10703 0.43667,0.13333 l 1.76113,0.30489 c 0.0478,0.008 0.0928,0.0249 0.13281,0.0481 0.04,0.0232 0.075,0.053 0.10439,0.0878 0.0588,0.0698 0.0935,0.15958 0.0935,0.25683 v 4.32273 h 6.71432 v -6.55308 c 0,-0.29488 -0.21175,-0.5463 -0.50178,-0.59583 l -2.6696,-0.46199 c -0.92823,-0.1595 -1.69698,-0.775694 -2.05724,-1.645895 l -0.0145,-0.03617 c -0.36256,-0.873845 -0.25534,-1.854195 0.28732,-2.62413 l 1.56269,-2.214335 c 0.16918,-0.240502 0.14148,-0.567744 -0.0677,-0.775663 l -4.63486,-4.635376 c -0.20783,-0.207919 -0.53534,-0.235314 -0.77463,-0.06615 l -2.21537,1.561662 c -0.76863,0.542645 -1.75046,0.649893 -2.6231,0.287321 l -0.0351,-0.01447 c -0.87141,-0.360148 -1.48775,-1.12892 -1.64847,-2.057238 l -0.46044,-2.669605 c -0.0508,-0.290037 -0.30205,-0.501778 -0.59583,-0.501778 z"
           inkscape:export-filename="path2.png"
           inkscape:export-xdpi="96"
           inkscape:export-ydpi="96" /><g
           id="g67"
           style="display:inline"
           transform="translate(-1.4232138,-0.56959464)"><path
             id="path7"
             d="m 177.35213,211.31365 h 17.19388 l -3.52714,24.16784 H 171.2337 Z"
             style="fill:#000000;fill-opacity:1;stroke:none;stroke-width:0.906386;stroke-dasharray:none;stroke-opacity:1"
             inkscape:path-effect="#path-effect23"
             inkscape:original-d="m 177.35213,211.31365 h 17.19388 l -3.52714,24.16784 H 171.2337 Z"
             transform="matrix(0.42233356,0,0,0.42233356,14.611255,23.291945)" /><path
             id="path8"
             d="m 198.68575,211.31365 h 17.19388 l -0.31195,24.16784 h -19.78516 z"
             style="fill:#000000;fill-opacity:1;stroke:none;stroke-width:0.906386;stroke-dasharray:none;stroke-opacity:1"
             inkscape:path-effect="#path-effect51"
             inkscape:original-d="m 198.68575,211.31365 h 17.19388 l -0.31195,24.16784 h -19.78516 z"
             transform="matrix(0.42233356,0,0,0.42233356,14.611255,23.291945)" /><path
             id="path9"
             d="m 220.01938,211.31365 h 17.19388 l 2.90324,24.16784 h -19.78517 z"
             style="fill:#000000;fill-opacity:1;stroke:none;stroke-width:0.906386;stroke-dasharray:none;stroke-opacity:1"
             inkscape:path-effect="#path-effect59"
             inkscape:original-d="m 220.01938,211.31365 h 17.19388 l 2.90324,24.16784 h -19.78517 z"
             transform="matrix(0.42233356,0,0,0.42233356,14.611255,23.291945)" /><path
             id="path10"
             d="m 241.35301,211.31365 h 17.19388 l 6.11842,24.16784 h -19.78517 z"
             style="fill:#000000;fill-opacity:1;stroke:none;stroke-width:0.906386;stroke-dasharray:none;stroke-opacity:1"
             inkscape:path-effect="#path-effect67"
             inkscape:original-d="m 241.35301,211.31365 h 17.19388 l 6.11842,24.16784 h -19.78517 z"
             transform="matrix(0.42233356,0,0,0.42233356,14.611255,23.291945)" /></g><path
           id="path4"
           style="fill:#000000;stroke-width:0.0108469"
           d="m 103.86167,98.399892 c -0.12338,0 -0.22901,0.08893 -0.24981,0.210748 l -0.19382,1.121244 c -0.0675,0.389846 -0.32643,0.712706 -0.69345,0.864476 l -0.0137,0.006 c -0.36651,0.15228 -0.77816,0.10724 -1.1015,-0.12068 l -0.93066,-0.656566 c -0.1005,-0.0711 -0.23802,-0.0593 -0.32534,0.028 l -1.946657,1.947296 c -0.08784,0.0868 -0.09953,0.22434 -0.02844,0.32535 l 0.656336,0.93003 c 0.227913,0.32337 0.273031,0.73555 0.120242,1.10258 l -0.0057,0.0141 c -0.151265,0.366 -0.473975,0.62494 -0.863829,0.69193 l -1.121893,0.19404 c -0.121817,0.0213 -0.210748,0.1269 -0.210748,0.25025 v 2.75275 h 2.941794 0.489865 9.70766 0.45709 2.97457 v -2.75232 c 0,-0.12385 -0.0889,-0.22944 -0.21075,-0.25025 l -1.12124,-0.19404 c -0.38986,-0.067 -0.71273,-0.32579 -0.86404,-0.69128 l -0.006,-0.0152 c -0.15228,-0.36702 -0.10724,-0.77877 0.12067,-1.10214 l 0.65634,-0.93003 c 0.0711,-0.10101 0.0594,-0.23846 -0.0285,-0.32579 l -1.94666,-1.946866 c -0.0873,-0.0873 -0.22484,-0.0988 -0.32534,-0.0278 l -0.93046,0.655906 c -0.32283,0.22791 -0.7352,0.27295 -1.10172,0.12067 l -0.0148,-0.006 c -0.36599,-0.15126 -0.62486,-0.47415 -0.69236,-0.864036 l -0.19339,-1.121247 c -0.0213,-0.121816 -0.12685,-0.210749 -0.25025,-0.210749 z" /><g
           id="g13"
           style="display:inline"
           transform="translate(-1.4232138,-0.56959464)"><path
             id="path6"
             d="m 177.35213,211.31365 h 17.19388 l -3.52714,24.16784 H 171.2337 Z"
             style="fill:#000000;fill-opacity:1;stroke:none;stroke-width:0.906386;stroke-dasharray:none;stroke-opacity:1"
             inkscape:path-effect="#path-effect55"
             inkscape:original-d="m 177.35213,211.31365 h 17.19388 l -3.52714,24.16784 H 171.2337 Z"
             transform="matrix(0.42233356,0,0,0.42233356,14.611255,23.291945)" /><path
             id="path11"
             d="m 198.68575,211.31365 h 17.19388 l -0.31195,24.16784 h -19.78516 z"
             style="fill:#000000;fill-opacity:1;stroke:none;stroke-width:0.906386;stroke-dasharray:none;stroke-opacity:1"
             inkscape:path-effect="#path-effect77"
             inkscape:original-d="m 198.68575,211.31365 h 17.19388 l -0.31195,24.16784 h -19.78516 z"
             transform="matrix(0.42233356,0,0,0.42233356,14.611255,23.291945)" /><path
             id="path12"
             d="m 220.01938,211.31365 h 17.19388 l 2.90324,24.16784 h -19.78517 z"
             style="fill:#000000;fill-opacity:1;stroke:none;stroke-width:0.906386;stroke-dasharray:none;stroke-opacity:1"
             inkscape:path-effect="#path-effect84"
             inkscape:original-d="m 220.01938,211.31365 h 17.19388 l 2.90324,24.16784 h -19.78517 z"
             transform="matrix(0.42233356,0,0,0.42233356,14.611255,23.291945)" /><path
             id="path13"
             d="m 241.35301,211.31365 h 17.19388 l 6.11842,24.16784 h -19.78517 z"
             style="fill:#000000;fill-opacity:1;stroke:none;stroke-width:0.906386;stroke-dasharray:none;stroke-opacity:1"
             inkscape:path-effect="#path-effect91"
             inkscape:original-d="m 241.35301,211.31365 h 17.19388 l 6.11842,24.16784 h -19.78517 z"
             transform="matrix(0.42233356,0,0,0.42233356,14.611255,23.291945)" /></g><path
           id="path15"
           style="fill:#000000;stroke-width:0.0108469"
           d="m 103.86167,98.399892 c -0.12338,0 -0.22901,0.08893 -0.24981,0.210748 l -0.19382,1.121244 c -0.0675,0.389846 -0.32643,0.712706 -0.69345,0.864476 l -0.0137,0.006 c -0.36651,0.15228 -0.77816,0.10724 -1.1015,-0.12068 l -0.93066,-0.656566 c -0.1005,-0.0711 -0.23802,-0.0593 -0.32534,0.028 l -1.946657,1.947296 c -0.08784,0.0868 -0.09953,0.22434 -0.02844,0.32535 l 0.656336,0.93003 c 0.227913,0.32337 0.273031,0.73555 0.120242,1.10258 l -0.0057,0.0141 c -0.151265,0.366 -0.473975,0.62494 -0.863829,0.69193 l -1.121893,0.19404 c -0.121817,0.0213 -0.210748,0.1269 -0.210748,0.25025 v 2.75275 h 2.941794 0.489865 9.70766 0.45709 2.97457 v -2.75232 c 0,-0.12385 -0.0889,-0.22944 -0.21075,-0.25025 l -1.12124,-0.19404 c -0.38986,-0.067 -0.71273,-0.32579 -0.86404,-0.69128 l -0.006,-0.0152 c -0.15228,-0.36702 -0.10724,-0.77877 0.12067,-1.10214 l 0.65634,-0.93003 c 0.0711,-0.10101 0.0594,-0.23846 -0.0285,-0.32579 l -1.94666,-1.946866 c -0.0873,-0.0873 -0.22484,-0.0988 -0.32534,-0.0278 l -0.93046,0.655906 c -0.32283,0.22791 -0.7352,0.27295 -1.10172,0.12067 l -0.0148,-0.006 c -0.36599,-0.15126 -0.62486,-0.47415 -0.69236,-0.864036 l -0.19339,-1.121247 c -0.0213,-0.121816 -0.12685,-0.210749 -0.25025,-0.210749 z" /></g></g></g></svg>
